# xmcd
#
# Track frame offsets: 
#        150
#        22959
#        37847
#        51908
#        67923
#        79375
#        95799
#        111168
#        129538
#        149273
#        168424
#
# Disc length: 2485 seconds
#
# Revision: 0
# Processed by: cddbd v1.5.2PL0 Copyright (c) Steve Scherf et al.
# Submitted via: ExactAudioCopyFreeDBPlugin 1.0
#
DISCID=9209b30b
DTITLE=Diane Coffee - Everybody's A Good Dog
DYEAR=2015
DGENRE=Pop
TTITLE0=Spring Breathes
TTITLE1=Mayflower
TTITLE2=Soon To Be, Won't To Be
TTITLE3=Down With The Current
TTITLE4=Tams Up
TTITLE5=GovT
TTITLE6=Everyday
TTITLE7=Duet (feat. Felicia Douglass)
TTITLE8=Too Much SpaceMan
TTITLE9=I Dig You
TTITLE10=Not That Easy
EXTD=
EXTT0=
EXTT1=
EXTT2=
EXTT3=
EXTT4=
EXTT5=
EXTT6=
EXTT7=
EXTT8=
EXTT9=
EXTT10=
PLAYORDER=
